<svg xmlns="http://www.w3.org/2000/svg" width="184.95000000000002" height="35" viewBox="0 0 184.95000000000002 35"><rect class="svg__rect" x="0" y="0" width="115.31" height="35" fill="#C13B3A"/><rect class="svg__rect" x="113.31" y="0" width="71.64000000000001" height="35" fill="#EA4560"/><path class="svg__text" d="M15.69 22L14.22 22L14.22 13.47L16.14 13.47L18.60 20.01L21.06 13.47L22.97 13.47L22.97 22L21.49 22L21.49 19.19L21.64 15.43L19.12 22L18.06 22L15.55 15.43L15.69 19.19L15.69 22ZM28.49 22L26.95 22L30.17 13.47L31.50 13.47L34.73 22L33.18 22L32.49 20.01L29.18 20.01L28.49 22ZM30.83 15.28L29.60 18.82L32.07 18.82L30.83 15.28ZM41.14 22L38.69 22L38.69 13.47L41.21 13.47Q42.34 13.47 43.21 13.97Q44.09 14.48 44.57 15.40Q45.05 16.33 45.05 17.52L45.05 17.52L45.05 17.95Q45.05 19.16 44.57 20.08Q44.08 21.00 43.19 21.50Q42.30 22 41.14 22L41.14 22ZM40.17 14.66L40.17 20.82L41.14 20.82Q42.30 20.82 42.93 20.09Q43.55 19.36 43.56 17.99L43.56 17.99L43.56 17.52Q43.56 16.13 42.96 15.40Q42.35 14.66 41.21 14.66L41.21 14.66L40.17 14.66ZM55.09 22L49.51 22L49.51 13.47L55.05 13.47L55.05 14.66L51.00 14.66L51.00 17.02L54.50 17.02L54.50 18.19L51.00 18.19L51.00 20.82L55.09 20.82L55.09 22ZM66.65 22L64.68 13.47L66.15 13.47L67.47 19.88L69.10 13.47L70.34 13.47L71.96 19.89L73.27 13.47L74.74 13.47L72.77 22L71.35 22L69.73 15.77L68.07 22L66.65 22ZM80.38 22L78.90 22L78.90 13.47L80.38 13.47L80.38 22ZM86.87 14.66L84.23 14.66L84.23 13.47L91.00 13.47L91.00 14.66L88.34 14.66L88.34 22L86.87 22L86.87 14.66ZM96.24 22L94.75 22L94.75 13.47L96.24 13.47L96.24 17.02L100.05 17.02L100.05 13.47L101.53 13.47L101.53 22L100.05 22L100.05 18.21L96.24 18.21L96.24 22Z" fill="#FFFFFF"/><path class="svg__text" d="M127.07 17.80L127.07 17.80Q127.07 16.54 127.67 15.54Q128.27 14.55 129.33 13.99Q130.40 13.43 131.75 13.43L131.75 13.43Q132.92 13.43 133.86 13.83Q134.80 14.22 135.42 14.97L135.42 14.97L133.91 16.33Q133.06 15.40 131.89 15.40L131.89 15.40Q131.87 15.40 131.87 15.40L131.87 15.40Q130.79 15.40 130.13 16.06Q129.47 16.71 129.47 17.80L129.47 17.80Q129.47 18.50 129.77 19.04Q130.07 19.59 130.61 19.89Q131.15 20.20 131.85 20.20L131.85 20.20Q132.53 20.20 133.13 19.93L133.13 19.93L133.13 17.62L135.23 17.62L135.23 21.10Q134.51 21.61 133.57 21.89Q132.64 22.17 131.70 22.17L131.70 22.17Q130.38 22.17 129.32 21.61Q128.27 21.05 127.67 20.05Q127.07 19.06 127.07 17.80ZM142.60 22L140.22 22L140.22 13.60L144.06 13.60Q145.20 13.60 146.04 13.98Q146.88 14.35 147.34 15.06Q147.79 15.76 147.79 16.71L147.79 16.71Q147.79 17.62 147.37 18.30Q146.94 18.98 146.15 19.36L146.15 19.36L147.96 22L145.42 22L143.89 19.77L142.60 19.77L142.60 22ZM142.60 15.47L142.60 17.93L143.92 17.93Q144.65 17.93 145.02 17.61Q145.39 17.29 145.39 16.71L145.39 16.71Q145.39 16.12 145.02 15.79Q144.65 15.47 143.92 15.47L143.92 15.47L142.60 15.47ZM154.96 22L152.58 22L152.58 13.60L156.43 13.60Q157.56 13.60 158.40 13.98Q159.24 14.35 159.70 15.06Q160.16 15.76 160.16 16.71L160.16 16.71Q160.16 17.66 159.70 18.35Q159.24 19.05 158.40 19.42Q157.56 19.80 156.43 19.80L156.43 19.80L154.96 19.80L154.96 22ZM154.96 15.47L154.96 17.93L156.28 17.93Q157.01 17.93 157.38 17.61Q157.76 17.29 157.76 16.71L157.76 16.71Q157.76 16.12 157.38 15.80Q157.01 15.47 156.28 15.47L156.28 15.47L154.96 15.47ZM164.48 17.80L164.48 17.80Q164.48 16.54 165.08 15.54Q165.68 14.55 166.73 13.99Q167.78 13.43 169.10 13.43L169.10 13.43Q170.25 13.43 171.18 13.84Q172.10 14.25 172.71 15.02L172.71 15.02L171.20 16.39Q170.39 15.40 169.22 15.40L169.22 15.40Q168.54 15.40 168.00 15.70Q167.47 16 167.17 16.54Q166.88 17.09 166.88 17.80L166.88 17.80Q166.88 18.51 167.17 19.05Q167.47 19.60 168.00 19.90Q168.54 20.20 169.22 20.20L169.22 20.20Q170.39 20.20 171.20 19.22L171.20 19.22L172.71 20.58Q172.11 21.35 171.18 21.76Q170.25 22.17 169.10 22.17L169.10 22.17Q167.78 22.17 166.73 21.61Q165.68 21.05 165.08 20.05Q164.48 19.06 164.48 17.80Z" fill="#FFFFFF" x="126.31"/></svg>